<mxfile host="app.diagrams.net" modified="2024-04-17T11:58:26.970Z" agent="Mozilla/5.0 (Windows NT 10.0; Win64; x64) AppleWebKit/537.36 (KHTML, like Gecko) Chrome/123.0.0.0 Safari/537.36" etag="9T63IDPKEw1w7Bv7mLDb" version="24.0.5" type="device">
  <diagram name="Page-1" id="9361dd3d-8414-5efd-6122-117bd74ce7a7">
    <mxGraphModel dx="2270" dy="955" grid="0" gridSize="10" guides="1" tooltips="1" connect="1" arrows="1" fold="1" page="0" pageScale="1.5" pageWidth="826" pageHeight="1169" background="#000000" math="0" shadow="0">
      <root>
        <mxCell id="0" />
        <mxCell id="1" parent="0" />
        <mxCell id="1NzZVQdvYcbDPh8oTCGJ-89" value="Customer" style="shape=umlLifeline;perimeter=lifelinePerimeter;whiteSpace=wrap;html=1;container=1;dropTarget=0;collapsible=0;recursiveResize=0;outlineConnect=0;portConstraint=eastwest;newEdgeStyle={&quot;curved&quot;:0,&quot;rounded&quot;:0};participant=umlActor;size=80;strokeWidth=4;strokeColor=#FFFFFF;fontColor=#FFFFFF;" parent="1" vertex="1">
          <mxGeometry x="80" y="120" width="40" height="850" as="geometry" />
        </mxCell>
        <mxCell id="1NzZVQdvYcbDPh8oTCGJ-90" value="" style="shape=umlDestroy;whiteSpace=wrap;html=1;strokeWidth=3;targetShapes=umlLifeline;strokeColor=#FFFFFF;fontColor=#FFFFFF;" parent="1NzZVQdvYcbDPh8oTCGJ-89" vertex="1">
          <mxGeometry x="5" y="820" width="30" height="30" as="geometry" />
        </mxCell>
        <mxCell id="1NzZVQdvYcbDPh8oTCGJ-91" value="&lt;span style=&quot;font-size: 14px;&quot;&gt;Cart Management&amp;nbsp;&lt;/span&gt;" style="shape=umlLifeline;perimeter=lifelinePerimeter;whiteSpace=wrap;html=1;container=1;dropTarget=0;collapsible=0;recursiveResize=0;outlineConnect=0;portConstraint=eastwest;newEdgeStyle={&quot;curved&quot;:0,&quot;rounded&quot;:0};strokeWidth=4;strokeColor=#FFFFFF;fontColor=#FFFFFF;" parent="1" vertex="1">
          <mxGeometry x="500" y="120" width="100" height="850" as="geometry" />
        </mxCell>
        <mxCell id="1NzZVQdvYcbDPh8oTCGJ-92" value="" style="shape=umlDestroy;whiteSpace=wrap;html=1;strokeWidth=3;targetShapes=umlLifeline;strokeColor=#FFFFFF;fontColor=#FFFFFF;" parent="1NzZVQdvYcbDPh8oTCGJ-91" vertex="1">
          <mxGeometry x="35" y="820" width="30" height="30" as="geometry" />
        </mxCell>
        <mxCell id="1NzZVQdvYcbDPh8oTCGJ-93" value="&lt;span style=&quot;font-size: 14px;&quot;&gt;Purchase Items&lt;/span&gt;" style="shape=umlLifeline;perimeter=lifelinePerimeter;whiteSpace=wrap;html=1;container=1;dropTarget=0;collapsible=0;recursiveResize=0;outlineConnect=0;portConstraint=eastwest;newEdgeStyle={&quot;curved&quot;:0,&quot;rounded&quot;:0};strokeWidth=4;strokeColor=#FFFFFF;fontColor=#FFFFFF;" parent="1" vertex="1">
          <mxGeometry x="660" y="120" width="100" height="850" as="geometry" />
        </mxCell>
        <mxCell id="1NzZVQdvYcbDPh8oTCGJ-94" value="" style="shape=umlDestroy;whiteSpace=wrap;html=1;strokeWidth=3;targetShapes=umlLifeline;strokeColor=#FFFFFF;fontColor=#FFFFFF;" parent="1NzZVQdvYcbDPh8oTCGJ-93" vertex="1">
          <mxGeometry x="35" y="820" width="30" height="30" as="geometry" />
        </mxCell>
        <mxCell id="1NzZVQdvYcbDPh8oTCGJ-95" value="&lt;span style=&quot;font-size: 14px;&quot;&gt;Product Database&lt;/span&gt;" style="shape=umlLifeline;perimeter=lifelinePerimeter;whiteSpace=wrap;html=1;container=1;dropTarget=0;collapsible=0;recursiveResize=0;outlineConnect=0;portConstraint=eastwest;newEdgeStyle={&quot;curved&quot;:0,&quot;rounded&quot;:0};strokeWidth=4;strokeColor=#FFFFFF;fontColor=#FFFFFF;" parent="1" vertex="1">
          <mxGeometry x="340" y="120" width="100" height="850" as="geometry" />
        </mxCell>
        <mxCell id="1NzZVQdvYcbDPh8oTCGJ-96" value="" style="shape=umlDestroy;whiteSpace=wrap;html=1;strokeWidth=3;targetShapes=umlLifeline;strokeColor=#FFFFFF;fontColor=#FFFFFF;" parent="1NzZVQdvYcbDPh8oTCGJ-95" vertex="1">
          <mxGeometry x="35" y="820" width="30" height="30" as="geometry" />
        </mxCell>
        <mxCell id="1NzZVQdvYcbDPh8oTCGJ-97" value="&lt;span style=&quot;font-size: 14px;&quot;&gt;Online Shopping Cart&lt;/span&gt;" style="shape=umlLifeline;perimeter=lifelinePerimeter;whiteSpace=wrap;html=1;container=1;dropTarget=0;collapsible=0;recursiveResize=0;outlineConnect=0;portConstraint=eastwest;newEdgeStyle={&quot;curved&quot;:0,&quot;rounded&quot;:0};perimeterSpacing=12;strokeWidth=4;strokeColor=#FFFFFF;fontColor=#FFFFFF;" parent="1" vertex="1">
          <mxGeometry x="180" y="120" width="100" height="850" as="geometry" />
        </mxCell>
        <mxCell id="1NzZVQdvYcbDPh8oTCGJ-98" value="" style="shape=umlDestroy;whiteSpace=wrap;html=1;strokeWidth=3;targetShapes=umlLifeline;strokeColor=#FFFFFF;fontColor=#FFFFFF;" parent="1NzZVQdvYcbDPh8oTCGJ-97" vertex="1">
          <mxGeometry x="35" y="820" width="30" height="30" as="geometry" />
        </mxCell>
        <mxCell id="1NzZVQdvYcbDPh8oTCGJ-99" value="" style="endArrow=classic;html=1;rounded=0;strokeColor=#FFFFFF;fontColor=#FFFFFF;" parent="1" target="1NzZVQdvYcbDPh8oTCGJ-97" edge="1">
          <mxGeometry width="50" height="50" relative="1" as="geometry">
            <mxPoint x="100" y="210" as="sourcePoint" />
            <mxPoint x="150" y="160" as="targetPoint" />
          </mxGeometry>
        </mxCell>
        <mxCell id="1NzZVQdvYcbDPh8oTCGJ-100" value="Login Details" style="text;html=1;align=center;verticalAlign=middle;resizable=0;points=[];autosize=1;strokeColor=#FFFFFF;fillColor=none;fontColor=#FFFFFF;" parent="1" vertex="1">
          <mxGeometry x="115" y="188" width="90" height="30" as="geometry" />
        </mxCell>
        <mxCell id="1NzZVQdvYcbDPh8oTCGJ-101" value="" style="endArrow=classic;html=1;rounded=0;strokeColor=#FFFFFF;fontColor=#FFFFFF;" parent="1" source="1NzZVQdvYcbDPh8oTCGJ-89" edge="1">
          <mxGeometry width="50" height="50" relative="1" as="geometry">
            <mxPoint x="101" y="290" as="sourcePoint" />
            <mxPoint x="228" y="290" as="targetPoint" />
            <Array as="points">
              <mxPoint x="170" y="290" />
            </Array>
          </mxGeometry>
        </mxCell>
        <mxCell id="1NzZVQdvYcbDPh8oTCGJ-102" value="" style="endArrow=classic;html=1;rounded=0;dashed=1;dashPattern=8 8;strokeColor=#FFFFFF;fontColor=#FFFFFF;" parent="1" edge="1">
          <mxGeometry width="50" height="50" relative="1" as="geometry">
            <mxPoint x="225" y="250" as="sourcePoint" />
            <mxPoint x="98" y="250" as="targetPoint" />
          </mxGeometry>
        </mxCell>
        <mxCell id="1NzZVQdvYcbDPh8oTCGJ-103" value="System Access" style="text;html=1;align=center;verticalAlign=middle;resizable=0;points=[];autosize=1;strokeColor=#FFFFFF;fillColor=none;fontColor=#FFFFFF;" parent="1" vertex="1">
          <mxGeometry x="110" y="220" width="100" height="30" as="geometry" />
        </mxCell>
        <mxCell id="1NzZVQdvYcbDPh8oTCGJ-104" value="" style="endArrow=classic;html=1;rounded=0;strokeColor=#FFFFFF;fontColor=#FFFFFF;" parent="1" target="1NzZVQdvYcbDPh8oTCGJ-95" edge="1">
          <mxGeometry width="50" height="50" relative="1" as="geometry">
            <mxPoint x="230" y="320" as="sourcePoint" />
            <mxPoint x="357" y="320" as="targetPoint" />
            <Array as="points">
              <mxPoint x="299" y="320" />
            </Array>
          </mxGeometry>
        </mxCell>
        <mxCell id="1NzZVQdvYcbDPh8oTCGJ-105" value="Responding" style="text;html=1;align=center;verticalAlign=middle;resizable=0;points=[];autosize=1;strokeColor=#FFFFFF;fillColor=none;fontColor=#FFFFFF;" parent="1" vertex="1">
          <mxGeometry x="265" y="290" width="90" height="30" as="geometry" />
        </mxCell>
        <mxCell id="1NzZVQdvYcbDPh8oTCGJ-106" value="" style="endArrow=classic;html=1;rounded=0;strokeColor=#FFFFFF;fontColor=#FFFFFF;" parent="1" edge="1">
          <mxGeometry width="50" height="50" relative="1" as="geometry">
            <mxPoint x="228" y="503" as="sourcePoint" />
            <mxPoint x="388" y="503" as="targetPoint" />
            <Array as="points">
              <mxPoint x="297" y="503" />
            </Array>
          </mxGeometry>
        </mxCell>
        <mxCell id="1NzZVQdvYcbDPh8oTCGJ-107" value="" style="endArrow=classic;html=1;rounded=0;dashed=1;dashPattern=8 8;strokeColor=#FFFFFF;fontColor=#FFFFFF;" parent="1" target="1NzZVQdvYcbDPh8oTCGJ-97" edge="1">
          <mxGeometry width="50" height="50" relative="1" as="geometry">
            <mxPoint x="387" y="370" as="sourcePoint" />
            <mxPoint x="260" y="370" as="targetPoint" />
          </mxGeometry>
        </mxCell>
        <mxCell id="1NzZVQdvYcbDPh8oTCGJ-108" value="List of Products" style="text;html=1;align=center;verticalAlign=middle;resizable=0;points=[];autosize=1;strokeColor=#FFFFFF;fillColor=none;fontColor=#FFFFFF;" parent="1" vertex="1">
          <mxGeometry x="255" y="340" width="110" height="30" as="geometry" />
        </mxCell>
        <mxCell id="1NzZVQdvYcbDPh8oTCGJ-109" value="Browse for Items" style="text;html=1;align=center;verticalAlign=middle;resizable=0;points=[];autosize=1;strokeColor=#FFFFFF;fillColor=none;fontColor=#FFFFFF;" parent="1" vertex="1">
          <mxGeometry x="110" y="260" width="110" height="30" as="geometry" />
        </mxCell>
        <mxCell id="1NzZVQdvYcbDPh8oTCGJ-110" value="Processing" style="text;html=1;align=center;verticalAlign=middle;resizable=0;points=[];autosize=1;strokeColor=#FFFFFF;fillColor=none;fontColor=#FFFFFF;" parent="1" vertex="1">
          <mxGeometry x="270" y="473" width="80" height="30" as="geometry" />
        </mxCell>
        <mxCell id="1NzZVQdvYcbDPh8oTCGJ-111" value="" style="endArrow=classic;html=1;rounded=0;strokeColor=#FFFFFF;fontColor=#FFFFFF;" parent="1" edge="1">
          <mxGeometry width="50" height="50" relative="1" as="geometry">
            <mxPoint x="230.75" y="399" as="sourcePoint" />
            <mxPoint x="99.25" y="399" as="targetPoint" />
          </mxGeometry>
        </mxCell>
        <mxCell id="1NzZVQdvYcbDPh8oTCGJ-112" value="List of Limited&lt;div&gt;offer&lt;/div&gt;" style="text;html=1;align=center;verticalAlign=middle;resizable=0;points=[];autosize=1;strokeColor=#FFFFFF;fillColor=none;fontColor=#FFFFFF;" parent="1" vertex="1">
          <mxGeometry x="110" y="360" width="100" height="40" as="geometry" />
        </mxCell>
        <mxCell id="1NzZVQdvYcbDPh8oTCGJ-113" value="" style="endArrow=classic;html=1;rounded=0;strokeColor=#FFFFFF;fontColor=#FFFFFF;" parent="1" edge="1">
          <mxGeometry width="50" height="50" relative="1" as="geometry">
            <mxPoint x="390" y="520" as="sourcePoint" />
            <mxPoint x="550" y="520" as="targetPoint" />
            <Array as="points">
              <mxPoint x="459" y="520" />
            </Array>
          </mxGeometry>
        </mxCell>
        <mxCell id="1NzZVQdvYcbDPh8oTCGJ-114" value="Add to Cart" style="text;html=1;align=center;verticalAlign=middle;resizable=0;points=[];autosize=1;strokeColor=#FFFFFF;fillColor=none;fontColor=#FFFFFF;" parent="1" vertex="1">
          <mxGeometry x="430" y="488" width="80" height="30" as="geometry" />
        </mxCell>
        <mxCell id="1NzZVQdvYcbDPh8oTCGJ-115" value="" style="endArrow=classic;html=1;rounded=0;dashed=1;dashPattern=8 8;strokeColor=#FFFFFF;fontColor=#FFFFFF;" parent="1" edge="1">
          <mxGeometry width="50" height="50" relative="1" as="geometry">
            <mxPoint x="548.5" y="560" as="sourcePoint" />
            <mxPoint x="391.5" y="560" as="targetPoint" />
          </mxGeometry>
        </mxCell>
        <mxCell id="1NzZVQdvYcbDPh8oTCGJ-116" value="List of item Chosen" style="text;html=1;align=center;verticalAlign=middle;resizable=0;points=[];autosize=1;strokeColor=#FFFFFF;fillColor=none;fontColor=#FFFFFF;" parent="1" vertex="1">
          <mxGeometry x="405" y="535" width="130" height="30" as="geometry" />
        </mxCell>
        <mxCell id="1NzZVQdvYcbDPh8oTCGJ-117" value="" style="endArrow=classic;html=1;rounded=0;strokeColor=#FFFFFF;fontColor=#FFFFFF;" parent="1" target="1NzZVQdvYcbDPh8oTCGJ-97" edge="1">
          <mxGeometry width="50" height="50" relative="1" as="geometry">
            <mxPoint x="230" y="600" as="sourcePoint" />
            <mxPoint x="390" y="600" as="targetPoint" />
            <Array as="points">
              <mxPoint x="390" y="600" />
            </Array>
          </mxGeometry>
        </mxCell>
        <mxCell id="1NzZVQdvYcbDPh8oTCGJ-118" value="Item Details" style="text;html=1;align=center;verticalAlign=middle;resizable=0;points=[];autosize=1;strokeColor=#FFFFFF;fillColor=none;fontColor=#FFFFFF;" parent="1" vertex="1">
          <mxGeometry x="265" y="565" width="90" height="30" as="geometry" />
        </mxCell>
        <mxCell id="1NzZVQdvYcbDPh8oTCGJ-119" value="" style="endArrow=classic;html=1;rounded=0;strokeColor=#FFFFFF;fontColor=#FFFFFF;" parent="1" source="1NzZVQdvYcbDPh8oTCGJ-89" edge="1">
          <mxGeometry width="50" height="50" relative="1" as="geometry">
            <mxPoint x="110.00153846153833" y="450" as="sourcePoint" />
            <mxPoint x="229.54" y="450" as="targetPoint" />
            <Array as="points">
              <mxPoint x="163.54" y="450" />
            </Array>
          </mxGeometry>
        </mxCell>
        <mxCell id="1NzZVQdvYcbDPh8oTCGJ-120" value="Choose items" style="text;html=1;align=center;verticalAlign=middle;resizable=0;points=[];autosize=1;strokeColor=#FFFFFF;fillColor=none;fontColor=#FFFFFF;" parent="1" vertex="1">
          <mxGeometry x="110" y="420" width="100" height="30" as="geometry" />
        </mxCell>
        <mxCell id="1NzZVQdvYcbDPh8oTCGJ-121" value="" style="endArrow=classic;html=1;rounded=0;strokeColor=#FFFFFF;fontColor=#FFFFFF;" parent="1" edge="1">
          <mxGeometry width="50" height="50" relative="1" as="geometry">
            <mxPoint x="100" y="640" as="sourcePoint" />
            <mxPoint x="100" y="640" as="targetPoint" />
            <Array as="points">
              <mxPoint x="230" y="640" />
            </Array>
          </mxGeometry>
        </mxCell>
        <mxCell id="1NzZVQdvYcbDPh8oTCGJ-122" value="Purchase Items?" style="text;html=1;align=center;verticalAlign=middle;resizable=0;points=[];autosize=1;strokeColor=#FFFFFF;fillColor=none;fontColor=#FFFFFF;" parent="1" vertex="1">
          <mxGeometry x="105" y="610" width="110" height="30" as="geometry" />
        </mxCell>
        <mxCell id="1NzZVQdvYcbDPh8oTCGJ-123" value="Alternative" style="shape=umlFrame;whiteSpace=wrap;html=1;pointerEvents=0;width=80;height=20;strokeColor=#FFFFFF;fontColor=#FFFFFF;" parent="1" vertex="1">
          <mxGeometry x="40" y="660" width="720" height="210" as="geometry" />
        </mxCell>
        <mxCell id="1NzZVQdvYcbDPh8oTCGJ-124" value="" style="endArrow=none;html=1;rounded=0;dashed=1;strokeWidth=2;strokeColor=#FFFFFF;fontColor=#FFFFFF;" parent="1" edge="1">
          <mxGeometry width="50" height="50" relative="1" as="geometry">
            <mxPoint x="60" y="760" as="sourcePoint" />
            <mxPoint x="740" y="760" as="targetPoint" />
            <Array as="points" />
          </mxGeometry>
        </mxCell>
        <mxCell id="1NzZVQdvYcbDPh8oTCGJ-125" value="[Purchase]" style="text;html=1;align=center;verticalAlign=middle;resizable=0;points=[];autosize=1;strokeColor=#FFFFFF;fillColor=none;fontColor=#FFFFFF;" parent="1" vertex="1">
          <mxGeometry x="30" y="688" width="80" height="30" as="geometry" />
        </mxCell>
        <mxCell id="1NzZVQdvYcbDPh8oTCGJ-126" value="[Else]" style="text;html=1;align=center;verticalAlign=middle;resizable=0;points=[];autosize=1;strokeColor=#FFFFFF;fillColor=none;fontColor=#FFFFFF;" parent="1" vertex="1">
          <mxGeometry x="45" y="778" width="50" height="30" as="geometry" />
        </mxCell>
        <mxCell id="1NzZVQdvYcbDPh8oTCGJ-127" value="Processing" style="text;html=1;align=center;verticalAlign=middle;resizable=0;points=[];autosize=1;strokeColor=#FFFFFF;fillColor=none;fontColor=#FFFFFF;" parent="1" vertex="1">
          <mxGeometry x="270" y="688" width="80" height="30" as="geometry" />
        </mxCell>
        <mxCell id="1NzZVQdvYcbDPh8oTCGJ-128" value="" style="endArrow=classic;html=1;rounded=0;strokeColor=#FFFFFF;fontColor=#FFFFFF;" parent="1" edge="1">
          <mxGeometry width="50" height="50" relative="1" as="geometry">
            <mxPoint x="234" y="718" as="sourcePoint" />
            <mxPoint x="386" y="718" as="targetPoint" />
            <Array as="points" />
          </mxGeometry>
        </mxCell>
        <mxCell id="1NzZVQdvYcbDPh8oTCGJ-129" value="" style="endArrow=classic;html=1;rounded=0;dashed=1;dashPattern=8 8;strokeColor=#FFFFFF;fontColor=#FFFFFF;" parent="1" edge="1">
          <mxGeometry width="50" height="50" relative="1" as="geometry">
            <mxPoint x="105.00153846153835" y="702.23" as="sourcePoint" />
            <mxPoint x="232.54" y="702.23" as="targetPoint" />
          </mxGeometry>
        </mxCell>
        <mxCell id="1NzZVQdvYcbDPh8oTCGJ-130" value="Yes" style="text;html=1;align=center;verticalAlign=middle;resizable=0;points=[];autosize=1;strokeColor=#FFFFFF;fillColor=none;fontColor=#FFFFFF;" parent="1" vertex="1">
          <mxGeometry x="145" y="680" width="40" height="30" as="geometry" />
        </mxCell>
        <mxCell id="1NzZVQdvYcbDPh8oTCGJ-131" value="" style="endArrow=classic;html=1;rounded=0;strokeColor=#FFFFFF;fontColor=#FFFFFF;" parent="1" edge="1">
          <mxGeometry width="50" height="50" relative="1" as="geometry">
            <mxPoint x="394" y="728" as="sourcePoint" />
            <mxPoint x="546" y="728" as="targetPoint" />
            <Array as="points" />
          </mxGeometry>
        </mxCell>
        <mxCell id="1NzZVQdvYcbDPh8oTCGJ-132" value="" style="endArrow=classic;html=1;rounded=0;strokeColor=#FFFFFF;fontColor=#FFFFFF;" parent="1" edge="1">
          <mxGeometry width="50" height="50" relative="1" as="geometry">
            <mxPoint x="550" y="750" as="sourcePoint" />
            <mxPoint x="710" y="750" as="targetPoint" />
            <Array as="points" />
          </mxGeometry>
        </mxCell>
        <mxCell id="1NzZVQdvYcbDPh8oTCGJ-133" value="Calculating Total payment" style="text;html=1;align=center;verticalAlign=middle;resizable=0;points=[];autosize=1;strokeColor=#FFFFFF;fillColor=none;fontColor=#FFFFFF;" parent="1" vertex="1">
          <mxGeometry x="390" y="698" width="160" height="30" as="geometry" />
        </mxCell>
        <mxCell id="1NzZVQdvYcbDPh8oTCGJ-134" value="Payment information" style="text;html=1;align=center;verticalAlign=middle;resizable=0;points=[];autosize=1;strokeColor=#FFFFFF;fillColor=none;fontColor=#FFFFFF;" parent="1" vertex="1">
          <mxGeometry x="560" y="718" width="130" height="30" as="geometry" />
        </mxCell>
        <mxCell id="1NzZVQdvYcbDPh8oTCGJ-135" value="" style="endArrow=classic;html=1;rounded=0;dashed=1;dashPattern=8 8;strokeColor=#FFFFFF;fontColor=#FFFFFF;" parent="1" edge="1">
          <mxGeometry width="50" height="50" relative="1" as="geometry">
            <mxPoint x="101.23153846153835" y="792.23" as="sourcePoint" />
            <mxPoint x="228.76999999999998" y="792.23" as="targetPoint" />
          </mxGeometry>
        </mxCell>
        <mxCell id="1NzZVQdvYcbDPh8oTCGJ-136" value="No" style="text;html=1;align=center;verticalAlign=middle;resizable=0;points=[];autosize=1;strokeColor=#FFFFFF;fillColor=none;fontColor=#FFFFFF;" parent="1" vertex="1">
          <mxGeometry x="145" y="770" width="40" height="30" as="geometry" />
        </mxCell>
        <mxCell id="1NzZVQdvYcbDPh8oTCGJ-137" value="Processing" style="text;html=1;align=center;verticalAlign=middle;resizable=0;points=[];autosize=1;strokeColor=#FFFFFF;fillColor=none;fontColor=#FFFFFF;" parent="1" vertex="1">
          <mxGeometry x="270" y="778" width="80" height="30" as="geometry" />
        </mxCell>
        <mxCell id="1NzZVQdvYcbDPh8oTCGJ-138" value="" style="endArrow=classic;html=1;rounded=0;strokeColor=#FFFFFF;fontColor=#FFFFFF;" parent="1" edge="1">
          <mxGeometry width="50" height="50" relative="1" as="geometry">
            <mxPoint x="238" y="808" as="sourcePoint" />
            <mxPoint x="390" y="808" as="targetPoint" />
            <Array as="points" />
          </mxGeometry>
        </mxCell>
        <mxCell id="1NzZVQdvYcbDPh8oTCGJ-139" value="" style="endArrow=classic;html=1;rounded=0;strokeColor=#FFFFFF;fontColor=#FFFFFF;" parent="1" edge="1">
          <mxGeometry width="50" height="50" relative="1" as="geometry">
            <mxPoint x="394" y="830" as="sourcePoint" />
            <mxPoint x="546" y="830" as="targetPoint" />
            <Array as="points" />
          </mxGeometry>
        </mxCell>
        <mxCell id="1NzZVQdvYcbDPh8oTCGJ-140" value="Item Saved on cart" style="text;html=1;align=center;verticalAlign=middle;resizable=0;points=[];autosize=1;strokeColor=#FFFFFF;fillColor=none;fontColor=#FFFFFF;" parent="1" vertex="1">
          <mxGeometry x="410" y="808" width="120" height="30" as="geometry" />
        </mxCell>
        <mxCell id="1NzZVQdvYcbDPh8oTCGJ-141" value="" style="endArrow=classic;html=1;rounded=0;strokeColor=#FFFFFF;fontColor=#FFFFFF;" parent="1" edge="1">
          <mxGeometry width="50" height="50" relative="1" as="geometry">
            <mxPoint x="550" y="860" as="sourcePoint" />
            <mxPoint x="102.46153846153834" y="860" as="targetPoint" />
            <Array as="points" />
          </mxGeometry>
        </mxCell>
        <mxCell id="1NzZVQdvYcbDPh8oTCGJ-142" value="Selected Items&lt;div&gt;Details&lt;/div&gt;" style="text;html=1;align=center;verticalAlign=middle;resizable=0;points=[];autosize=1;strokeColor=#FFFFFF;fillColor=none;fontColor=#FFFFFF;" parent="1" vertex="1">
          <mxGeometry x="115" y="820" width="100" height="40" as="geometry" />
        </mxCell>
        <mxCell id="1NzZVQdvYcbDPh8oTCGJ-143" value="" style="endArrow=classic;html=1;rounded=0;strokeColor=#FFFFFF;fontColor=#FFFFFF;" parent="1" source="1NzZVQdvYcbDPh8oTCGJ-93" edge="1">
          <mxGeometry width="50" height="50" relative="1" as="geometry">
            <mxPoint x="550" y="930" as="sourcePoint" />
            <mxPoint x="102.46153846153834" y="930" as="targetPoint" />
            <Array as="points" />
          </mxGeometry>
        </mxCell>
        <mxCell id="1NzZVQdvYcbDPh8oTCGJ-144" value="Payment and delivery&lt;div&gt;details&lt;/div&gt;" style="text;html=1;align=center;verticalAlign=middle;resizable=0;points=[];autosize=1;strokeColor=#FFFFFF;fillColor=none;fontColor=#FFFFFF;" parent="1" vertex="1">
          <mxGeometry x="95" y="890" width="140" height="40" as="geometry" />
        </mxCell>
        <mxCell id="1NzZVQdvYcbDPh8oTCGJ-145" value="&lt;i style=&quot;&quot;&gt;&lt;u style=&quot;&quot;&gt;&lt;font style=&quot;font-size: 25px;&quot;&gt;&lt;b&gt;SEQUENCE DIAGRAM&lt;/b&gt;&lt;/font&gt;&lt;/u&gt;&lt;/i&gt;" style="text;html=1;align=center;verticalAlign=middle;resizable=0;points=[];autosize=1;strokeColor=#FFFFFF;fillColor=none;fontColor=#FFFFFF;" parent="1" vertex="1">
          <mxGeometry x="255" y="49" width="290" height="40" as="geometry" />
        </mxCell>
      </root>
    </mxGraphModel>
  </diagram>
</mxfile>
